 <svg version="1.0" xmlns="http://www.w3.org/2000/svg" width="700.000000pt" height="271.000000pt" viewBox="0 0 700.000000 271.000000" preserveAspectRatio="xMidYMid meet">
<metadata>
Created by potrace 1.12, written by Peter Selinger 2001-2015
</metadata>
<g transform="translate(0.000000,271.000000) scale(0.100000,-0.100000)" fill="#000000" stroke="none">
<path d="M205 2024 c-77 -28 -115 -83 -115 -168 0 -42 16 -102 70 -257 39
-111 70 -210 70 -220 0 -35 -36 -59 -89 -59 -56 0 -59 -4 -56 -80 2 -41 23
-111 88 -280 47 -124 91 -237 98 -252 l12 -28 240 0 c222 0 244 2 283 20 64
31 113 119 114 205 1 28 27 -29 84 -185 l13 -35 227 -3 226 -2 0 242 c0 133 4
238 8 233 10 -12 162 -445 162 -463 0 -9 118 -12 545 -12 l545 0 11 28 c20 55
23 57 27 15 l3 -43 324 0 323 0 7 63 c3 34 12 114 19 177 l13 115 2 -177 1
-178 230 0 c177 0 230 3 230 13 0 6 9 106 20 222 l19 210 85 192 84 193 16
177 c8 98 18 217 22 266 l6 87 -69 0 -69 0 -54 -126 c-30 -69 -57 -127 -60
-129 -4 -2 -32 54 -64 126 l-59 129 -247 0 -248 0 -8 -42 -8 -43 -6 40 -5 40
-231 3 -231 2 -14 -42 -14 -43 -3 43 -3 42 -319 0 -319 0 -3 -37 -3 -38 -23
38 -24 37 -319 0 c-297 0 -319 -1 -319 -17 -1 -17 -1 -17 -11 0 -9 16 -38 17
-379 17 -338 0 -370 -1 -370 -17 0 -15 -1 -15 -18 0 -16 15 -46 17 -223 16
-152 0 -214 -4 -244 -15z m445 -49 l0 -55 -33 0 c-18 0 -43 -7 -56 -16 -33
-24 -25 -57 57 -231 38 -82 75 -163 81 -182 32 -99 -6 -221 -83 -266 -42 -25
-45 -25 -279 -25 l-237 0 0 55 0 55 53 0 c56 0 78 13 91 55 4 13 -17 88 -55
195 -33 96 -67 197 -76 225 -36 116 15 207 132 236 17 4 114 7 218 8 l187 1 0
-55z m768 3 l-3 -53 -72 -3 -73 -3 0 -359 0 -360 -215 0 -215 0 0 360 0 360
-70 0 -70 0 0 55 0 55 361 0 360 0 -3 -52z m662 -3 l0 -55 -85 0 -85 0 0 -120
0 -120 85 0 85 0 0 -45 0 -45 -85 0 -85 0 0 -150 0 -150 85 0 85 0 0 -45 0
-45 -310 0 -310 0 0 415 0 415 310 0 310 0 0 -55z m688 3 l-3 -53 -87 -3 -88
-3 0 -119 0 -120 90 0 90 0 0 -45 0 -44 -87 -3 -88 -3 -3 -147 -3 -148 91 0
90 0 0 -45 0 -45 -310 0 -310 0 0 415 0 415 311 0 310 0 -3 -52z m492 -313 l0
-364 98 -3 97 -3 3 -47 3 -48 -320 0 -321 0 0 415 0 415 220 0 220 0 0 -365z
m586 228 c34 -76 66 -139 71 -140 5 -2 36 59 69 134 l60 138 58 3 c45 2 57 0
53 -10 -3 -7 -51 -116 -106 -242 l-101 -229 0 -173 0 -174 -215 0 -215 0 0
174 0 174 -105 237 c-58 131 -105 239 -105 241 0 2 107 4 238 4 l237 0 61
-137z"></path>
<path d="M4336 1998 c-35 -283 -40 -393 -44 -845 l-3 -473 319 0 c252 0 329 3
368 15 43 13 50 13 57 0 6 -11 27 -15 76 -15 67 0 67 0 84 35 l17 35 113 0
113 0 17 -35 17 -35 310 0 c240 0 311 3 314 13 25 79 93 256 98 254 4 -1 67
-62 141 -134 l135 -133 138 0 139 0 87 268 87 267 -2 410 -2 410 -70 3 -70 2
-59 -101 -59 -102 -100 102 -100 101 -166 0 -167 0 -99 -164 c-54 -91 -102
-163 -105 -161 -3 2 -35 76 -70 165 l-64 161 -123 -3 -124 -3 -95 -215 c-52
-118 -101 -228 -109 -245 -13 -29 -13 -27 -14 42 -2 178 -102 336 -249 395
-55 22 -70 23 -394 26 l-337 3 -5 -43z m715 4 c164 -65 253 -204 253 -392 0
-150 -60 -274 -168 -346 -93 -61 -113 -64 -468 -64 l-318 0 0 408 c0 225 3
412 7 416 4 4 150 6 323 4 299 -3 318 -5 371 -26z m789 -142 c37 -91 112 -276
168 -412 l100 -248 -229 0 -230 0 -20 35 -21 36 -126 -3 -126 -3 -10 -32 c-9
-33 -9 -33 -72 -33 l-62 0 54 133 c31 72 108 259 172 415 l116 283 110 -3 110
-3 66 -165z m765 5 c87 -91 162 -165 166 -165 5 0 9 74 9 165 l0 165 60 0 60
0 0 -415 0 -415 -127 0 -128 0 -195 193 -195 192 -3 -192 -2 -193 -60 0 -60 0
0 415 0 415 159 0 159 0 157 -165z"></path>
<path d="M4780 1615 l0 -315 38 0 c49 0 79 22 92 68 14 51 13 470 -1 511 -14
38 -35 51 -88 51 l-41 0 0 -315z"></path>
<path d="M5476 1542 c-9 -16 -76 -184 -76 -193 0 -5 41 -9 90 -9 50 0 90 1 90
3 0 2 -18 48 -39 102 -37 95 -52 117 -65 97z"></path>
</g>
</svg>